<?xml version="1.0" encoding="UTF-8"?>
<svg id="_卡片" data-name="卡片" xmlns="http://www.w3.org/2000/svg" viewBox="0 0 380 320">
  <defs>
    <style>
      .cls-1 {
        fill: #e9fffb;
      }

      .cls-2 {
        fill: #002b38;
      }

      .cls-3 {
        opacity: .4;
      }

      .cls-4 {
        fill: none;
      }

      .cls-5 {
        opacity: .15;
      }
    </style>
  </defs>
  <path class="cls-1" d="M264.8,0C312.8,0,336.79,0,353.62,12.22c5.43,3.95,10.21,8.73,14.16,14.16,12.22,16.82,12.22,40.82,12.22,88.82v89.6c0,48,0,71.99-12.22,88.82-3.95,5.43-8.73,10.21-14.16,14.16-16.82,12.22-40.82,12.22-88.82,12.22H115.2c-48,0-71.99,0-88.82-12.22-5.43-3.95-10.21-8.73-14.16-14.16C0,276.79,0,252.8,0,204.8v-89.6C0,67.2,0,43.21,12.22,26.38c3.95-5.43,8.73-10.21,14.16-14.16C43.21,0,67.2,0,115.2,0h149.6Z"/>
  <g class="cls-5">
    <path class="cls-2" d="M303.25,50.5h-11.5l-10.5,31.5h32.5l-10.5-31.5ZM292.75,74.5l5-16,4.5,16h-9.5Z"/>
    <rect class="cls-2" x="243.25" y="50" width="8.5" height="32"/>
    <rect class="cls-2" x="256.75" y="50" width="8.5" height="32"/>
    <rect class="cls-2" x="270.25" y="50" width="8.5" height="32"/>
  </g>
  <g>
    <g class="cls-3">
      <g id="_5" data-name="5">
        <path class="cls-2" d="M292.65,203.13c-19.71,0-40.13-8.64-42.1-24.38l11.91-1.49c1.06,8.46,17.94,15.11,34.75,13.68,5.4-.46,22.95-3.05,22.31-17.16-.25-5.62-2.19-9.52-6.09-12.26-12.92-9.09-43-2.7-53.5.53l-7.76,2.39,3-47.93h71.85v12h-61.35l-1.5,19.99c13.54-3.22,40.67-7.7,56.16,3.2,6.89,4.85,10.76,12.3,11.18,21.54.75,16.49-12,27.85-33.28,29.67-1.84.16-3.7.23-5.57.23Z"/>
        <rect class="cls-4" x="231" y="100" width="120" height="120"/>
      </g>
      <polygon class="cls-2" points="232 108 202 203 214 203 244 108 232 108"/>
    </g>
    <g id="_1" data-name="1">
      <rect class="cls-4" x="17" y="31" width="200" height="200"/>
      <path class="cls-2" d="M141.45,47.57c-.26.35-26.66,35.36-80.24,53.99l6.57,18.89c33.34-11.6,57.06-28.75,71.71-41.93v124.98h20V53.5l-18.05-5.93Z"/>
    </g>
  </g>
  <g>
    <g>
      <g id="H">
        <polygon class="cls-2" points="48.43 247.62 48.43 255.75 38.03 255.75 38.03 247.62 32.83 247.62 32.83 270.38 38.03 270.38 38.03 260.95 48.43 260.95 48.43 270.38 53.63 270.38 53.63 247.62 48.43 247.62"/>
      </g>
      <g id="A">
        <path class="cls-2" d="M121.23,247.95h-6.5l-9.75,21.78h26l-9.75-21.78ZM117.98,253.48l5.2,11.7h-10.4l5.2-11.7Z"/>
      </g>
      <g id="M">
        <polygon class="cls-2" points="92.31 250.81 81.91 246.74 81.91 270.38 87.11 270.38 87.11 254.36 92.31 256.4 97.51 254.36 97.51 270.38 102.71 270.38 102.71 246.74 92.31 250.81"/>
      </g>
      <g id="N">
        <polygon class="cls-2" points="149.18 247.3 149.18 261.14 138.46 247.3 133.58 247.3 133.58 270.05 138.78 270.05 138.78 256.21 149.5 270.05 154.38 270.05 154.38 247.3 149.18 247.3"/>
      </g>
      <g id="U">
        <path class="cls-2" d="M72.81,247.3v9.75c0,8.45-3.51,8.45-5.2,8.45s-5.2,0-5.2-8.45v-9.75h-5.2v9.75c0,8.93,3.6,13.65,10.4,13.65s10.4-4.72,10.4-13.65v-9.75h-5.2Z"/>
      </g>
    </g>
    <g id="I">
      <rect class="cls-2" x="158.72" y="255.75" width="14.07" height="6.5"/>
    </g>
    <g>
      <g id="A-2" data-name="A">
        <path class="cls-2" d="M241.04,247.95h-6.5l-9.75,21.78h26l-9.75-21.78ZM237.79,253.48l5.2,11.7h-10.4l5.2-11.7Z"/>
      </g>
      <g id="D">
        <path class="cls-2" d="M328.64,247.62h-2.6v22.43h2.6c8.68,0,18.53,0,18.53-12.03,0-10.4-9.42-10.4-18.53-10.4ZM331.24,264.82v-11.98c8.94.14,10.73,1.17,10.73,5.18,0,5.2-1.88,6.6-10.73,6.8Z"/>
      </g>
      <g id="C">
        <path class="cls-2" d="M193.87,261.84c-1.01,2.27-2.73,3.33-5.42,3.33-4.4,0-6.5-.97-6.5-6.5,0-2.79.67-6.5,6.5-6.5,3.49,0,4.47,1.42,5.47,3.44l4.65-2.33c-1.56-3.12-3.98-6.31-10.13-6.31-7.33,0-11.7,4.37-11.7,11.7,0,11.7,8.81,11.7,11.7,11.7,4.72,0,8.34-2.28,10.18-6.42l-4.75-2.11Z"/>
      </g>
      <g id="E">
        <polygon class="cls-2" points="322.19 253.48 322.19 248.27 301.72 248.27 301.72 269.73 322.19 269.73 322.19 264.52 306.92 264.52 306.92 261.27 322.19 261.27 322.19 256.73 306.92 256.73 306.92 253.48 322.19 253.48"/>
      </g>
      <g id="F">
        <polygon class="cls-2" points="273.19 253.48 273.19 248.27 252.72 248.27 252.72 270.05 257.92 270.05 257.92 262.9 273.19 262.9 273.19 257.7 257.92 257.7 257.92 253.48 273.19 253.48"/>
      </g>
      <g id="R">
        <path class="cls-2" d="M206.24,270.38v-5.54c2.66-.04,5.05-.15,7.12-.46l3.53,6h6.03l-4.44-7.54c2.36-1.32,3.68-3.5,3.68-7.08s-1.57-5.62-4.8-6.79c-2.62-.95-6.59-1.33-13.72-1.33h-2.6v22.75h5.2ZM206.24,252.85c4.75.08,7.68.4,9.35,1,1.24.45,1.37.78,1.37,1.9,0,2.03-.45,2.32-1.3,2.7-1.91.85-5.87,1.11-9.42,1.17v-6.78Z"/>
      </g>
      <g id="T">
        <polygon class="cls-2" points="276.07 247.62 276.07 252.82 284.19 252.82 284.19 270.38 289.39 270.38 289.39 252.82 297.84 252.82 297.84 247.62 276.07 247.62"/>
      </g>
    </g>
  </g>
</svg>