<?xml version="1.0" encoding="UTF-8"?>
<svg id="_卡片" data-name="卡片" xmlns="http://www.w3.org/2000/svg" viewBox="0 0 380 320">
  <defs>
    <style>
      .cls-1 {
        fill: #3a5466;
      }

      .cls-2 {
        opacity: .4;
      }

      .cls-3 {
        fill: none;
      }

      .cls-4 {
        opacity: .15;
      }

      .cls-5 {
        fill: #c5e6ff;
      }
    </style>
  </defs>
  <path class="cls-1" d="M264.8,0C312.8,0,336.79,0,353.62,12.22c5.43,3.95,10.21,8.73,14.16,14.16,12.22,16.82,12.22,40.82,12.22,88.82v89.6c0,48,0,71.99-12.22,88.82-3.95,5.43-8.73,10.21-14.16,14.16-16.82,12.22-40.82,12.22-88.82,12.22H115.2c-48,0-71.99,0-88.82-12.22-5.43-3.95-10.21-8.73-14.16-14.16C0,276.79,0,252.8,0,204.8v-89.6C0,67.2,0,43.21,12.22,26.38c3.95-5.43,8.73-10.21,14.16-14.16C43.21,0,67.2,0,115.2,0h149.6Z"/>
  <g class="cls-4">
    <path class="cls-5" d="M303.25,50.5h-11.5l-10.5,31.5h32.5l-10.5-31.5ZM292.75,74.5l5-16,4.5,16h-9.5Z"/>
    <rect class="cls-5" x="243.25" y="50" width="8.5" height="32"/>
    <rect class="cls-5" x="256.75" y="50" width="8.5" height="32"/>
    <rect class="cls-5" x="270.25" y="50" width="8.5" height="32"/>
  </g>
  <g>
    <g class="cls-2">
      <g id="_5" data-name="5">
        <path class="cls-5" d="M292.65,203.13c-19.71,0-40.13-8.64-42.1-24.38l11.91-1.49c1.06,8.46,17.94,15.11,34.75,13.68,5.4-.46,22.95-3.05,22.31-17.16-.25-5.62-2.19-9.52-6.09-12.26-12.92-9.09-43-2.7-53.5.53l-7.76,2.39,3-47.93h71.85v12h-61.35l-1.5,19.99c13.54-3.22,40.67-7.7,56.16,3.2,6.89,4.85,10.76,12.3,11.18,21.54.75,16.49-12,27.85-33.28,29.67-1.84.16-3.7.23-5.57.23Z"/>
        <rect class="cls-3" x="231" y="100" width="120" height="120"/>
      </g>
      <polygon class="cls-5" points="232 108 202 203 214 203 244 108 232 108"/>
    </g>
    <g id="_2" data-name="2">
      <rect class="cls-3" x="17" y="31" width="200" height="200"/>
      <path class="cls-5" d="M110.99,178.5c34.15-15.83,71.01-41.77,71.01-80,0-28.23-24.73-48.89-60.15-50.25-32.61-1.26-69.17,16.04-72.32,56.99l19.94,1.53c2.15-27.91,27.49-39.47,51.61-38.54,19.71.76,40.92,10.55,40.92,30.27,0,44.69-81.02,73.08-112.23,80.25l2.23,19.75h135v-20h-76.01Z"/>
    </g>
  </g>
  <g>
    <g>
      <g id="H">
        <polygon class="cls-5" points="69.18 247.62 69.18 255.75 58.78 255.75 58.78 247.62 53.58 247.62 53.58 270.38 58.78 270.38 58.78 260.95 69.18 260.95 69.18 270.38 74.38 270.38 74.38 247.62 69.18 247.62"/>
      </g>
      <g id="A">
        <path class="cls-5" d="M141.98,247.95h-6.5l-9.75,21.77h26l-9.75-21.77ZM138.73,253.48l5.2,11.7h-10.4l5.2-11.7Z"/>
      </g>
      <g id="M">
        <polygon class="cls-5" points="113.05 250.81 102.65 246.74 102.65 270.38 107.85 270.38 107.85 254.36 113.05 256.4 118.25 254.36 118.25 270.38 123.45 270.38 123.45 246.74 113.05 250.81"/>
      </g>
      <g id="N">
        <polygon class="cls-5" points="169.93 247.3 169.93 261.14 159.21 247.3 154.33 247.3 154.33 270.05 159.53 270.05 159.53 256.21 170.25 270.05 175.13 270.05 175.13 247.3 169.93 247.3"/>
      </g>
      <g id="U">
        <path class="cls-5" d="M93.55,247.3v9.75c0,8.45-3.51,8.45-5.2,8.45s-5.2,0-5.2-8.45v-9.75h-5.2v9.75c0,8.93,3.6,13.65,10.4,13.65s10.4-4.72,10.4-13.65v-9.75h-5.2Z"/>
      </g>
    </g>
    <g id="I">
      <rect class="cls-5" x="179.47" y="255.75" width="14.07" height="6.5"/>
    </g>
    <g id="D">
      <path class="cls-5" d="M260.77,247.62h-2.6v22.42h2.6c8.68,0,18.52,0,18.52-12.02,0-10.4-9.42-10.4-18.52-10.4ZM263.37,264.82v-11.98c8.94.14,10.73,1.17,10.73,5.18,0,5.2-1.88,6.6-10.73,6.8Z"/>
    </g>
    <g id="E">
      <polygon class="cls-5" points="302.05 253.48 302.05 248.27 281.57 248.27 281.57 269.73 302.05 269.73 302.05 264.52 286.77 264.52 286.77 261.27 302.05 261.27 302.05 256.73 286.77 256.73 286.77 253.48 302.05 253.48"/>
    </g>
    <g id="G">
      <path class="cls-5" d="M207.15,257.05v5.2h7.29c-.53,2.92-2.24,3.25-5.66,3.25-4.4,0-6.5-1.02-6.5-6.83,0-2.79.67-6.5,6.5-6.5,2.71,0,4.55.94,5.47,2.79l4.65-2.33c-1.83-3.65-5.42-5.66-10.13-5.66-7.33,0-11.7,4.37-11.7,11.7,0,12.03,8.81,12.03,11.7,12.03,2.54,0,5.44-.23,7.66-1.98,2.28-1.79,3.39-4.76,3.39-9.07v-2.6h-12.68Z"/>
    </g>
    <g id="I-2" data-name="I">
      <rect class="cls-5" x="247.12" y="247.62" width="6.5" height="22.75"/>
    </g>
    <g id="U-2" data-name="U">
      <path class="cls-5" d="M238.02,247.3v9.75c0,8.45-3.51,8.45-5.2,8.45s-5.2,0-5.2-8.45v-9.75h-5.2v9.75c0,8.93,3.6,13.65,10.4,13.65s10.4-4.72,10.4-13.65v-9.75h-5.2Z"/>
    </g>
    <g id="D-2" data-name="D">
      <path class="cls-5" d="M307.9,247.62h-2.6v22.42h2.6c8.68,0,18.52,0,18.52-12.02,0-10.4-9.42-10.4-18.52-10.4ZM310.5,264.82v-11.98c8.94.14,10.73,1.17,10.73,5.18,0,5.2-1.88,6.6-10.73,6.8Z"/>
    </g>
  </g>
</svg>