<?xml version="1.0" encoding="UTF-8"?>
<svg id="_卡片" data-name="卡片" xmlns="http://www.w3.org/2000/svg" viewBox="0 0 380 320">
  <defs>
    <style>
      .cls-1 {
        opacity: .4;
      }

      .cls-2 {
        fill: none;
      }

      .cls-3 {
        fill: #c0d2ff;
      }

      .cls-4 {
        fill: #536a87;
      }

      .cls-5 {
        opacity: .2;
      }
    </style>
  </defs>
  <path class="cls-4" d="M264.8,0C312.8,0,336.79,0,353.62,12.22c5.43,3.95,10.21,8.73,14.16,14.16,12.22,16.82,12.22,40.82,12.22,88.82v89.6c0,48,0,71.99-12.22,88.82-3.95,5.43-8.73,10.21-14.16,14.16-16.82,12.22-40.82,12.22-88.82,12.22H115.2c-48,0-71.99,0-88.82-12.22-5.43-3.95-10.21-8.73-14.16-14.16C0,276.79,0,252.8,0,204.8v-89.6C0,67.2,0,43.21,12.22,26.38c3.95-5.43,8.73-10.21,14.16-14.16C43.21,0,67.2,0,115.2,0h149.6Z"/>
  <g class="cls-5">
    <path class="cls-3" d="M303.25,50.5h-11.5l-10.5,31.5h32.5l-10.5-31.5ZM292.75,74.5l5-16,4.5,16h-9.5Z"/>
    <rect class="cls-3" x="243.25" y="50" width="8.5" height="32"/>
    <rect class="cls-3" x="256.75" y="50" width="8.5" height="32"/>
    <rect class="cls-3" x="270.25" y="50" width="8.5" height="32"/>
  </g>
  <g>
    <g class="cls-1">
      <g id="_5" data-name="5">
        <path class="cls-3" d="M292.65,203.13c-19.71,0-40.13-8.64-42.1-24.38l11.91-1.49c1.06,8.46,17.94,15.11,34.75,13.68,5.4-.46,22.95-3.05,22.31-17.16-.25-5.62-2.19-9.52-6.09-12.26-12.92-9.09-43-2.7-53.5.53l-7.76,2.39,3-47.93h71.85v12h-61.35l-1.5,19.99c13.54-3.22,40.67-7.7,56.16,3.2,6.89,4.85,10.76,12.3,11.18,21.54.75,16.49-12,27.85-33.28,29.67-1.84.16-3.7.23-5.57.23Z"/>
        <rect class="cls-2" x="231" y="100" width="120" height="120"/>
      </g>
      <polygon class="cls-3" points="232 108 202 203 214 203 244 108 232 108"/>
    </g>
    <g id="_3" data-name="3">
      <rect class="cls-2" x="17" y="31" width="200" height="200"/>
      <path class="cls-3" d="M156.27,119.61c6.01-2.57,11.58-6.2,16.18-11.91,14.5-20.39-.7-42.42-20.65-50.43-36.59-15.98-99.34-7.67-104.76,40.33l19.92,1.81c.62-8.08,4.36-14.96,11.02-20.09,14.18-10.77,35.76-12.72,53.35-9.56,12.92,2.64,25.68,6.25,25.68,21.25s-29.51,20.98-53.8,21.79c-7.25.24-7,.41-14.22.6-2.68.04-5.05.08-6.98.14v14.93h0c10.09.07,12.65-.25,22.73-.18,32.27.22,49.77,2.72,57.27,17.72,3.77,7.53,2.33,18.46-3.91,24.91-13.35,13.66-35.84,16.42-54.46,12.65-19.71-3.99-35.87-17.58-36.66-38.29l-19.95,1.48c.57,6.77,2.13,13.65,4.98,20.14,14.43,32.44,54.7,41.67,86.4,34.63,19.86-4.23,42.28-16.81,44.57-39.46,1.78-20.58-9.68-35.33-26.71-42.44Z"/>
    </g>
  </g>
  <g>
    <g id="I">
      <rect class="cls-3" x="115.06" y="255.75" width="14.07" height="6.5"/>
    </g>
    <g>
      <g id="A">
        <path class="cls-3" d="M197.39,247.95h-6.5l-9.75,21.77h26l-9.75-21.77ZM194.14,253.48l5.2,11.7h-10.4l5.2-11.7Z"/>
      </g>
      <g id="D">
        <path class="cls-3" d="M284.99,247.62h-2.6v22.42h2.6c8.68,0,18.53,0,18.53-12.02,0-10.4-9.42-10.4-18.53-10.4ZM287.59,264.82v-11.98c8.94.14,10.73,1.17,10.73,5.18,0,5.2-1.88,6.6-10.73,6.8Z"/>
      </g>
      <g id="C">
        <path class="cls-3" d="M150.21,261.84c-1.01,2.27-2.73,3.33-5.42,3.33-4.4,0-6.5-.97-6.5-6.5,0-2.79.67-6.5,6.5-6.5,3.49,0,4.47,1.42,5.47,3.44l4.65-2.33c-1.56-3.12-3.98-6.31-10.13-6.31-7.33,0-11.7,4.37-11.7,11.7,0,11.7,8.81,11.7,11.7,11.7,4.72,0,8.34-2.28,10.18-6.42l-4.75-2.11Z"/>
      </g>
      <g id="E">
        <polygon class="cls-3" points="278.54 253.48 278.54 248.27 258.06 248.27 258.06 269.73 278.54 269.73 278.54 264.52 263.26 264.52 263.26 261.27 278.54 261.27 278.54 256.73 263.26 256.73 263.26 253.48 278.54 253.48"/>
      </g>
      <g id="F">
        <polygon class="cls-3" points="229.54 253.48 229.54 248.27 209.06 248.27 209.06 270.05 214.26 270.05 214.26 262.9 229.54 262.9 229.54 257.7 214.26 257.7 214.26 253.48 229.54 253.48"/>
      </g>
      <g id="R">
        <path class="cls-3" d="M162.59,270.38v-5.54c2.66-.04,5.05-.15,7.12-.46l3.53,6h6.03l-4.44-7.54c2.36-1.32,3.68-3.5,3.68-7.08s-1.57-5.62-4.8-6.79c-2.62-.95-6.59-1.33-13.72-1.33h-2.6v22.75h5.2ZM162.59,252.85c4.75.08,7.68.4,9.35,1,1.24.45,1.37.78,1.37,1.9,0,2.03-.45,2.32-1.3,2.7-1.91.85-5.87,1.11-9.42,1.17v-6.78Z"/>
      </g>
      <g id="T">
        <polygon class="cls-3" points="232.41 247.62 232.41 252.83 240.54 252.83 240.54 270.38 245.74 270.38 245.74 252.83 254.19 252.83 254.19 247.62 232.41 247.62"/>
      </g>
    </g>
    <g>
      <g id="A-2" data-name="A">
        <path class="cls-3" d="M92.74,247.95h-6.5l-9.75,21.77h26l-9.75-21.77ZM89.49,253.48l5.2,11.7h-10.4l5.2-11.7Z"/>
      </g>
      <g id="I-2" data-name="I">
        <rect class="cls-3" x="104.86" y="247.62" width="6.5" height="22.75"/>
      </g>
    </g>
  </g>
</svg>