<?xml version="1.0" encoding="UTF-8"?>
<svg id="_卡片" data-name="卡片" xmlns="http://www.w3.org/2000/svg" viewBox="0 0 380 320">
  <defs>
    <style>
      .cls-1 {
        opacity: .25;
      }

      .cls-2 {
        opacity: .4;
      }

      .cls-3 {
        fill: none;
      }

      .cls-4 {
        fill: #cad9ff;
      }

      .cls-5 {
        fill: #6971ff;
      }
    </style>
  </defs>
  <path class="cls-5" d="M264.8,0C312.8,0,336.79,0,353.62,12.22c5.43,3.95,10.21,8.73,14.16,14.16,12.22,16.82,12.22,40.82,12.22,88.82v89.6c0,48,0,71.99-12.22,88.82-3.95,5.43-8.73,10.21-14.16,14.16-16.82,12.22-40.82,12.22-88.82,12.22H115.2c-48,0-71.99,0-88.82-12.22-5.43-3.95-10.21-8.73-14.16-14.16C0,276.79,0,252.8,0,204.8v-89.6C0,67.2,0,43.21,12.22,26.38c3.95-5.43,8.73-10.21,14.16-14.16C43.21,0,67.2,0,115.2,0h149.6Z"/>
  <g class="cls-1">
    <path class="cls-4" d="M303.25,50.5h-11.5l-10.5,31.5h32.5l-10.5-31.5ZM292.75,74.5l5-16,4.5,16h-9.5Z"/>
    <rect class="cls-4" x="243.25" y="50" width="8.5" height="32"/>
    <rect class="cls-4" x="256.75" y="50" width="8.5" height="32"/>
    <rect class="cls-4" x="270.25" y="50" width="8.5" height="32"/>
  </g>
  <g>
    <g class="cls-2">
      <g id="_5" data-name="5">
        <path class="cls-4" d="M292.65,203.13c-19.71,0-40.13-8.64-42.1-24.38l11.91-1.49c1.06,8.46,17.94,15.11,34.75,13.68,5.4-.46,22.95-3.05,22.31-17.16-.25-5.62-2.19-9.52-6.09-12.26-12.92-9.09-43-2.7-53.5.53l-7.76,2.39,3-47.93h71.85v12h-61.35l-1.5,19.99c13.54-3.22,40.67-7.7,56.16,3.2,6.89,4.85,10.76,12.3,11.18,21.54.75,16.49-12,27.85-33.28,29.67-1.84.16-3.7.23-5.57.23Z"/>
        <rect class="cls-3" x="231" y="100" width="120" height="120"/>
      </g>
      <polygon class="cls-4" points="232 108 202 203 214 203 244 108 232 108"/>
    </g>
    <g id="_4" data-name="4">
      <rect class="cls-3" x="17" y="31" width="200" height="200"/>
      <polygon class="cls-4" points="154.5 81.42 154.5 141 76.14 141 156.57 60.57 142.43 46.43 44.93 143.93 52 161 154.5 161 154.5 203.5 174.5 203.5 174.5 81.42 154.5 81.42"/>
    </g>
  </g>
  <g>
    <g id="I">
      <rect class="cls-4" x="140.37" y="255.75" width="14.07" height="6.5"/>
    </g>
    <g>
      <g id="A">
        <path class="cls-4" d="M118.05,247.95h-6.5l-9.75,21.78h26l-9.75-21.78ZM114.8,253.48l5.2,11.7h-10.4l5.2-11.7Z"/>
      </g>
      <g id="I-2" data-name="I">
        <rect class="cls-4" x="130.17" y="247.62" width="6.5" height="22.75"/>
      </g>
    </g>
    <g>
      <g id="D">
        <path class="cls-4" d="M259.67,247.62h-2.6v22.43h2.6c8.68,0,18.53,0,18.53-12.03,0-10.4-9.42-10.4-18.53-10.4ZM262.28,264.82v-11.98c8.94.14,10.72,1.17,10.72,5.18,0,5.2-1.88,6.6-10.72,6.8Z"/>
      </g>
      <g id="E">
        <polygon class="cls-4" points="252.85 253.48 252.85 248.27 232.38 248.27 232.38 269.73 252.85 269.73 252.85 264.52 237.58 264.52 237.58 261.27 252.85 261.27 252.85 256.73 237.58 256.73 237.58 253.48 252.85 253.48"/>
      </g>
      <g id="P">
        <path class="cls-4" d="M175.01,249.04c-2.86-1.18-7.24-1.42-13.83-1.42h-2.6v22.75h5.2v-3.54c7.84.05,11.42-.78,13.66-2.97,2-1.95,2.27-4.54,2.27-6.82,0-2.6-.49-6.27-4.69-8.01ZM173.8,260.15c-1.29,1.26-5.68,1.51-10.03,1.49v-8.8c10.72.15,10.72,1.35,10.72,4.21,0,2.13-.35,2.76-.7,3.1Z"/>
      </g>
      <g id="R">
        <path class="cls-4" d="M212.53,270.38v-5.54c2.66-.04,5.05-.15,7.12-.46l3.53,6h6.03l-4.44-7.54c2.36-1.32,3.68-3.5,3.68-7.08s-1.57-5.62-4.8-6.79c-2.62-.95-6.59-1.33-13.72-1.33h-2.6v22.75h5.2ZM212.53,252.85c4.75.08,7.68.4,9.35,1,1.24.45,1.37.78,1.37,1.9,0,2.03-.45,2.32-1.3,2.7-1.91.85-5.87,1.11-9.42,1.17v-6.78Z"/>
      </g>
      <g id="U">
        <path class="cls-4" d="M198.55,247.3v9.75c0,8.45-3.51,8.45-5.2,8.45s-5.2,0-5.2-8.45v-9.75h-5.2v9.75c0,8.93,3.6,13.65,10.4,13.65s10.4-4.72,10.4-13.65v-9.75h-5.2Z"/>
      </g>
    </g>
  </g>
</svg>