<?xml version="1.0" encoding="UTF-8"?>
<svg id="_卡片" data-name="卡片" xmlns="http://www.w3.org/2000/svg" viewBox="0 0 380 320">
  <defs>
    <style>
      .cls-1 {
        fill: #ecccff;
      }

      .cls-2 {
        opacity: .25;
      }

      .cls-3 {
        opacity: .4;
      }

      .cls-4 {
        fill: none;
      }

      .cls-5 {
        fill: #704eea;
      }
    </style>
  </defs>
  <path class="cls-5" d="M264.8,0C312.8,0,336.79,0,353.62,12.22c5.43,3.95,10.21,8.73,14.16,14.16,12.22,16.82,12.22,40.82,12.22,88.82v89.6c0,48,0,71.99-12.22,88.82-3.95,5.43-8.73,10.21-14.16,14.16-16.82,12.22-40.82,12.22-88.82,12.22H115.2c-48,0-71.99,0-88.82-12.22-5.43-3.95-10.21-8.73-14.16-14.16C0,276.79,0,252.8,0,204.8v-89.6C0,67.2,0,43.21,12.22,26.38c3.95-5.43,8.73-10.21,14.16-14.16C43.21,0,67.2,0,115.2,0h149.6Z"/>
  <g class="cls-2">
    <path class="cls-1" d="M303.25,50.5h-11.5l-10.5,31.5h32.5l-10.5-31.5ZM292.75,74.5l5-16,4.5,16h-9.5Z"/>
    <rect class="cls-1" x="243.25" y="50" width="8.5" height="32"/>
    <rect class="cls-1" x="256.75" y="50" width="8.5" height="32"/>
    <rect class="cls-1" x="270.25" y="50" width="8.5" height="32"/>
  </g>
  <g>
    <g class="cls-3">
      <g id="_5" data-name="5">
        <path class="cls-1" d="M292.65,203.13c-19.71,0-40.13-8.64-42.1-24.38l11.91-1.49c1.06,8.46,17.94,15.11,34.75,13.68,5.4-.46,22.95-3.05,22.31-17.16-.25-5.62-2.19-9.52-6.09-12.26-12.92-9.09-43-2.7-53.5.53l-7.76,2.39,3-47.93h71.85v12h-61.35l-1.5,19.99c13.54-3.22,40.67-7.7,56.16,3.2,6.89,4.85,10.76,12.3,11.18,21.54.75,16.49-12,27.85-33.28,29.67-1.84.16-3.7.23-5.57.23Z"/>
        <rect class="cls-4" x="231" y="100" width="120" height="120"/>
      </g>
      <polygon class="cls-1" points="232 108 202 203 214 203 244 108 232 108"/>
    </g>
    <g id="_5-2" data-name="5">
      <path class="cls-1" d="M119.74,202.88c-32.86,0-66.88-14.39-70.16-40.64l19.85-2.48c1.76,14.1,29.91,25.18,57.91,22.8,8.99-.77,38.25-5.09,37.18-28.61-.42-9.37-3.65-15.86-10.14-20.44-21.53-15.16-71.67-4.5-89.17.89l-12.94,3.98,5-79.89h119.75v20h-102.25l-2.5,33.32c22.57-5.37,67.78-12.83,93.61,5.33,11.49,8.08,17.93,20.49,18.63,35.9,1.25,27.48-20,46.42-55.46,49.44-3.07.26-6.17.39-9.29.39Z"/>
      <rect class="cls-4" x="17" y="31" width="200" height="200"/>
    </g>
  </g>
  <g>
    <g id="I">
      <rect class="cls-1" x="117.47" y="255.75" width="14.07" height="6.5"/>
    </g>
    <g>
      <g id="A">
        <path class="cls-1" d="M95.15,247.95h-6.5l-9.75,21.78h26l-9.75-21.78ZM91.9,253.48l5.2,11.7h-10.4l5.2-11.7Z"/>
      </g>
      <g id="I-2" data-name="I">
        <rect class="cls-1" x="107.27" y="247.62" width="6.5" height="22.75"/>
      </g>
    </g>
    <g>
      <g id="A-2" data-name="A">
        <path class="cls-1" d="M221.35,247.95h-6.5l-9.75,21.77h26l-9.75-21.77ZM218.1,253.48l5.2,11.7h-10.4l5.2-11.7Z"/>
      </g>
      <g id="C">
        <path class="cls-1" d="M152.17,261.84c-1.01,2.27-2.73,3.33-5.42,3.33-4.4,0-6.5-.97-6.5-6.5,0-2.79.67-6.5,6.5-6.5,3.49,0,4.47,1.42,5.47,3.44l4.65-2.33c-1.56-3.12-3.98-6.31-10.13-6.31-7.33,0-11.7,4.37-11.7,11.7,0,11.7,8.81,11.7,11.7,11.7,4.72,0,8.34-2.28,10.18-6.42l-4.75-2.11Z"/>
      </g>
      <g id="E">
        <polygon class="cls-1" points="203.5 253.48 203.5 248.27 183.02 248.27 183.02 269.73 203.5 269.73 203.5 264.52 188.23 264.52 188.23 261.27 203.5 261.27 203.5 256.73 188.23 256.73 188.23 253.48 203.5 253.48"/>
      </g>
      <g id="O">
        <path class="cls-1" d="M264.72,246.98c-7,0-11.7,4.83-11.7,12.02s4.48,12.02,11.7,12.02,11.7-4.61,11.7-12.02-4.7-12.02-11.7-12.02ZM264.72,265.82c-4.31,0-6.5-2.3-6.5-6.82s2.37-6.83,6.5-6.83,6.5,2.49,6.5,6.83-2.19,6.82-6.5,6.82Z"/>
      </g>
      <g id="R">
        <path class="cls-1" d="M164.55,270.38v-5.54c2.66-.04,5.05-.15,7.12-.46l3.53,6h6.03l-4.44-7.54c2.36-1.32,3.68-3.5,3.68-7.08s-1.57-5.62-4.8-6.79c-2.62-.95-6.59-1.33-13.72-1.33h-2.6v22.75h5.2ZM164.55,252.85c4.75.08,7.68.4,9.35,1,1.24.45,1.37.78,1.37,1.9,0,2.03-.45,2.32-1.3,2.7-1.91.85-5.87,1.11-9.42,1.17v-6.78Z"/>
      </g>
      <g id="T">
        <polygon class="cls-1" points="230.38 247.62 230.38 252.83 238.5 252.83 238.5 270.38 243.7 270.38 243.7 252.83 252.15 252.83 252.15 247.62 230.38 247.62"/>
      </g>
      <g id="R-2" data-name="R">
        <path class="cls-1" d="M283.55,270.38v-5.54c2.66-.04,5.05-.15,7.12-.46l3.53,6h6.03l-4.44-7.54c2.36-1.32,3.68-3.5,3.68-7.08s-1.57-5.62-4.8-6.79c-2.62-.95-6.59-1.33-13.72-1.33h-2.6v22.75h5.2ZM283.55,252.85c4.75.08,7.68.4,9.35,1,1.24.45,1.37.78,1.37,1.9,0,2.03-.45,2.32-1.3,2.7-1.91.85-5.87,1.11-9.42,1.17v-6.78Z"/>
      </g>
    </g>
  </g>
</svg>